<svg xmlns="http://www.w3.org/2000/svg" width="195" height="83.553" viewBox="0 0 195 83.553">
  <g id="Logo" transform="translate(-67 -65)">
    <path id="Vector" d="M0,0H12.24q4,0,5.989,2.093A8.3,8.3,0,0,1,20.22,8.049a8.539,8.539,0,0,1-2.17,6.206q-2.171,2.235-6.624,2.236H7.4v9.73H0ZM7.395,11.178H9.2a4.327,4.327,0,0,0,2.991-.814,2.738,2.738,0,0,0,.861-2.084A3.076,3.076,0,0,0,12.3,6.189,3.64,3.64,0,0,0,9.491,5.33h-2.1v5.848Z" transform="translate(74.292 70.366)" fill="#ffd500"/>
    <path id="Vector-2" data-name="Vector" d="M7.993,26.82H0V0H12.539c2.737,0,4.826.736,6.206,2.186a8.625,8.625,0,0,1,2.074,6.162,8.859,8.859,0,0,1-2.255,6.415c-1.5,1.544-3.8,2.327-6.838,2.327H7.994v9.73ZM.6,26.221H7.4v-9.73h4.33c2.871,0,5.027-.722,6.41-2.145a8.289,8.289,0,0,0,2.085-6A8.054,8.054,0,0,0,18.311,2.6c-1.263-1.327-3.205-2-5.773-2H.6ZM9.5,11.778h-2.1V5.33h2.4a3.869,3.869,0,0,1,3.038.961,3.383,3.383,0,0,1,.821,2.289,3.037,3.037,0,0,1-.956,2.3A4.55,4.55,0,0,1,9.5,11.778Zm-1.505-.6H9.5a4.084,4.084,0,0,0,2.785-.733,2.426,2.426,0,0,0,.768-1.865,2.764,2.764,0,0,0-.674-1.9A3.4,3.4,0,0,0,9.791,5.93h-1.8v5.249Z" transform="translate(73.993 70.066)" fill="#fff"/>
    <path id="Vector-3" data-name="Vector" d="M0,0H7.363V19.764H18.854v6.457H0Z" transform="translate(96.327 70.366)" fill="#ec6608"/>
    <path id="Vector-4" data-name="Vector" d="M19.452,26.82H0V0H7.961V19.764H19.452ZM.6,26.221H18.854V20.363H7.363V.6H.6Z" transform="translate(96.029 70.066)" fill="#fff"/>
    <path id="Vector-5" data-name="Vector" d="M17.039,21.892H8.68L7.518,26.221H0L8.956,0h8.032l8.954,26.221H18.231Zm-1.528-5.669-2.63-8.933-2.6,8.933Z" transform="translate(117.159 70.366)" fill="#e30613"/>
    <path id="Vector-6" data-name="Vector" d="M0,0H7.363l.108,9.663L15.076,0h9.795l-8.7,9.9,9.088,16.323h-9.07L11.167,15.437l-3.8,4.385v6.4H0Z" transform="translate(144.794 70.366)" fill="#e50076"/>
    <path id="Vector-7" data-name="Vector" d="M26.07,26.82H16.3l-4.508-9.676s-.274-.865-.4-.863-.65.75-.65.75l-2.779,3.2V26.82H0V0H7.961V9.55s.3-.6.374-.7C10.1,6.478,15.229,0,15.229,0h10.6l-9,10.235Zm-9.389-.6h8.37L16.108,10.158,24.508.6H15.522L8.2,10.123H7.363V.6H.6V26.221H7.363V20.01l4.18-4.818Z" transform="translate(144.495 70.066)" fill="#fff"/>
    <path id="Vector-8" data-name="Vector" d="M17.038,21.892H8.679l-1.16,4.329H0L8.955,0h8.032l8.954,26.221H18.232ZM15.51,16.223,12.881,6.8l-2.6,9.427Z" transform="translate(171.968 70.366)" fill="#0095db"/>
    <path id="Vector-9" data-name="Vector" d="M26.778,26.82H18.422l-1.193-4.329h-7.9L8.166,26.82H0L9.159,0h8.46Zm-7.9-.6h7.064L17.192.6h-7.6L.836,26.221H7.707l1.16-4.329h8.817Zm-2.554-9.4H10.3l2.616-9.59h.768Zm-5.233-.6h4.445L13.582,8.931l-.243-1.036h-.1L13,8.945Z" transform="translate(116.741 70.066)" fill="#fff"/>
    <path id="Vector-10" data-name="Vector" d="M26.778,26.82H18.421l-1.193-4.329h-7.9L8.165,26.82H0L9.16,0h8.46Zm-7.9-.6h7.065L17.192.6h-7.6L.836,26.221h6.87l1.161-4.329h8.816Zm-2.554-9.4H10.3l2.617-9.59h.768Zm-5.234-.6h4.445L13.581,8.931l-.244-1.036h-.1L13,8.945Z" transform="translate(171.55 70.066)" fill="#fff"/>
    <path id="Vector-11" data-name="Vector" d="M0,0H22.382V6.475H14.873V26.221H7.51V6.475H0Z" transform="translate(194.589 70.366)" fill="#38b6ab"/>
    <path id="Vector-12" data-name="Vector" d="M15.472,26.82H7.51V7.075H0V0H22.981V7.075H15.472V26.82Zm-7.363-.6h6.766V6.475h7.509V.6H.6V6.475H8.11V26.221Z" transform="translate(194.288 70.066)" fill="#fff"/>
    <path id="Vector-13" data-name="Vector" d="M0,0H7.379V26.221H0Z" transform="translate(219.918 70.366)" fill="#164194"/>
    <path id="Vector-14" data-name="Vector" d="M7.977,26.82H0V0H7.977ZM.6,26.221H7.379V.6H.6Z" transform="translate(219.619 70.066)" fill="#fff"/>
    <path id="Vector-15" data-name="Vector" d="M0,0H7.7l5.363,18.87L18.355,0h7.473L16.98,26.221H9Z" transform="translate(230.07 70.366)" fill="#00964f"/>
    <path id="Vector-16" data-name="Vector" d="M17.615,26.819H9.207L0,0H8.344l.062.218S12.241,13.763,13.356,18.2c.084.332.119.272.119.272s.056.073.143-.279C14.727,13.706,18.548,0,18.548,0h8.116Zm-7.982-.6h7.553L25.831.6H19L13.746,19.356h-.523L7.892.6H.84Z" transform="translate(229.649 70.066)" fill="#fff"/>
    <path id="Vector-17" data-name="Vector" d="M151.625,27.138a10.374,10.374,0,0,1-2.631.92q-.443.055-.984.08a3.265,3.265,0,0,1-1-.094,1.68,1.68,0,0,1-.76-.413,1.211,1.211,0,0,1-.305-.908,2.716,2.716,0,0,1,.042-.895,4.233,4.233,0,0,1,.3-.92,8,8,0,0,1,.471-.882q.263-.426.538-.8c.2-.284.439-.586.707-.908s.56-.641.873-.962a12.347,12.347,0,0,1,1.01-.921,9.387,9.387,0,0,1,1.122-.788q.831-.506,1.551-.907t1.4-.735c.452-.222.913-.428,1.384-.614s.974-.361,1.509-.522a9.659,9.659,0,0,1-.54,4.553,11.43,11.43,0,0,1-2.507,3.967A7.307,7.307,0,0,1,151.625,27.138Zm5-11.191a.659.659,0,0,1,.069.281,7.421,7.421,0,0,0-.9.321,7.187,7.187,0,0,1-.9.32q.359-.213.817-.535t.817-.614C156.545,15.775,156.578,15.849,156.623,15.947Zm3.864-.427a11.942,11.942,0,0,0-3.269.52,3.412,3.412,0,0,0-.124-.574,1.044,1.044,0,0,0-.18-.333.682.682,0,0,0-.25-.188.4.4,0,0,0-.386.055,10.365,10.365,0,0,0-1.067.827q-.513.454-1.025.829a5.044,5.044,0,0,1-1.108.614,2.9,2.9,0,0,1-1.315.187,1.025,1.025,0,0,1,.124-.761,1.742,1.742,0,0,1,.582-.562,3.1,3.1,0,0,1,.873-.347,3.412,3.412,0,0,1,1-.092.872.872,0,0,0,.4-.081.647.647,0,0,0,.236-.2.413.413,0,0,0,.083-.228c0-.071-.028-.108-.083-.108a6.024,6.024,0,0,0-1.8.055,3.56,3.56,0,0,0-1.33.52,2.155,2.155,0,0,0-.761.867,1.69,1.69,0,0,0-.124,1.068.808.808,0,0,0,.193.36.547.547,0,0,0,.25.174,1.128,1.128,0,0,0,.415.04,1.188,1.188,0,0,0,.5-.146q-1.052.64-2.1,1.348a18.255,18.255,0,0,0-1.967,1.523,13.892,13.892,0,0,0-1.661,1.762,8.765,8.765,0,0,0-1.218,2.1,5.771,5.771,0,0,0-.457,1.6,2.347,2.347,0,0,0,.291,1.576,1.509,1.509,0,0,0,.665.587,3.751,3.751,0,0,0,.956.308,5.7,5.7,0,0,0,1.025.092,4.108,4.108,0,0,0,.872-.079,6.994,6.994,0,0,0,2.382-.64,10.348,10.348,0,0,0,2.106-1.324,11.552,11.552,0,0,0,1.758-1.776,13.11,13.11,0,0,0,1.342-2.03,9.932,9.932,0,0,0,1.053-3.1,9.8,9.8,0,0,0,0-3.285,11.271,11.271,0,0,1,1.5-.347,12.169,12.169,0,0,1,1.385-.133q.691-.026,1.384,0c.461.017.96.045,1.5.08a1.919,1.919,0,0,0,.679-.055.8.8,0,0,0,.36-.187.161.161,0,0,0,.027-.213.414.414,0,0,0-.318-.132A31.168,31.168,0,0,0,160.487,15.52Zm-12.615,1.644a8.936,8.936,0,0,1-.194-.949c-.047-.311-.092-.611-.138-.894a6.442,6.442,0,0,0-.181-.8.7.7,0,0,0-.581-.534,1.843,1.843,0,0,0-.942.16,6.66,6.66,0,0,0-1.177.748,13.379,13.379,0,0,0-1.22,1.066c-.4.391-.775.8-1.134,1.216s-.661.8-.9,1.135q.055-.88.1-1.509t.1-1.161c0-.124-.028-.2-.083-.24a.265.265,0,0,0-.208-.027.5.5,0,0,0-.223.106.223.223,0,0,0-.1.161c-.054.374-.106.708-.152,1s-.093.571-.139.83-.087.519-.124.787-.083.571-.138.908a.524.524,0,0,0,.125.454c.118.16.281.167.485.026q.581-.72,1.218-1.428t1.26-1.322c.415-.409.817-.777,1.2-1.109a10.075,10.075,0,0,1,1.08-.814c.461-.3.737-.249.831.161a6.441,6.441,0,0,1,.139.719c.036.267.077.545.124.828a8.1,8.1,0,0,0,.181.842,4.468,4.468,0,0,0,.3.815c.019.089.092.155.222.2a.974.974,0,0,0,.388.053.424.424,0,0,0,.291-.12c.063-.072.06-.187-.015-.348A3.872,3.872,0,0,1,147.872,17.164ZM136.311,9.818a.237.237,0,0,0-.194-.133.442.442,0,0,0-.374.161.56.56,0,0,0-.125.36.681.681,0,0,0,.125.387.564.564,0,0,0,.374.239.769.769,0,0,0,.678-.092c.194-.134.283-.254.263-.361a.45.45,0,0,0-.249-.374,1.211,1.211,0,0,0-.471-.079A.248.248,0,0,0,136.311,9.818Zm2.367,7.851a3.626,3.626,0,0,1-1.924.4,3.465,3.465,0,0,1-1.759-.665,4.36,4.36,0,0,1-1.314-1.523c-.093-.177-.212-.24-.361-.186a.677.677,0,0,0-.305.186,1.4,1.4,0,0,0,.25.909,4.306,4.306,0,0,0,1.33,1.456,3.775,3.775,0,0,0,1.911.68,4.174,4.174,0,0,0,2.188-.481,5.848,5.848,0,0,0,2.131-2,.458.458,0,0,0,.083-.293.832.832,0,0,0-.055-.322c-.036-.088-.087-.132-.153-.132s-.142.08-.235.24A4.6,4.6,0,0,1,138.678,17.67Zm-26.615,1.173a2.425,2.425,0,0,1-1.567-.162,2.467,2.467,0,0,1-1.085-1.094,4.15,4.15,0,0,1-.463-1.759c-.01-.188-.078-.279-.205-.27a.53.53,0,0,0-.29.088,1.6,1.6,0,0,0-.12.9,4.027,4.027,0,0,0,.5,1.7,2.676,2.676,0,0,0,1.192,1.15,2.8,2.8,0,0,0,1.789.159,5.172,5.172,0,0,0,2.262-1.252.535.535,0,0,0,.16-.246.975.975,0,0,0,.068-.311c0-.091-.02-.146-.069-.164s-.133.035-.255.156A4.125,4.125,0,0,1,112.063,18.843Zm28.458-7.661q-3.961.426-8,.827c-1.015.09-1.976.173-2.88.254s-1.9.164-2.991.254a9.1,9.1,0,0,1,.374-.975,2.778,2.778,0,0,0,.235-.761c.019-.126-.013-.2-.1-.228a.48.48,0,0,0-.291.013,1.066,1.066,0,0,0-.333.188.492.492,0,0,0-.194.294,4.671,4.671,0,0,0-.249.668c-.074.249-.158.524-.25.827q-1.025.081-1.883.16c-.572.054-1.12.094-1.647.12s-1.048.045-1.564.053-1.062,0-1.634-.013c-.26,0-.4.053-.416.16s.12.169.416.187c.553.055,1.064.089,1.536.107s.956.023,1.454.013,1.034-.031,1.607-.065,1.228-.082,1.966-.135c-.055.2-.12.387-.193.574s-.153.391-.236.613-.166.477-.249.761-.18.625-.291,1.016a8.684,8.684,0,0,0-.291,1.069,7.173,7.173,0,0,0-.152,1.174,3.326,3.326,0,0,0,.124,1.108,1.607,1.607,0,0,0,.568.842,1.643,1.643,0,0,0,1.15.24,4.8,4.8,0,0,0,1.357-.374,9.112,9.112,0,0,0,1.287-.682,11,11,0,0,0,.942-.654,5.188,5.188,0,0,0,.761-.547c.287-.241.568-.489.846-.748s.539-.511.788-.762.466-.462.651-.641a.388.388,0,0,0,.125-.32c-.011-.124-.106-.143-.291-.053q-.971.8-2.132,1.656t-2.271,1.521a5.707,5.707,0,0,1-.54.28,6.142,6.142,0,0,1-.638.255,3.2,3.2,0,0,1-.623.146,1.42,1.42,0,0,1-.527-.013.865.865,0,0,1-.623-.548,2.231,2.231,0,0,1-.111-.947,6.188,6.188,0,0,1,.193-1.109q.153-.574.263-1c.111-.411.217-.756.319-1.042s.189-.537.264-.761.141-.423.208-.6.124-.356.179-.533q1.523-.133,2.811-.255t2.81-.254q4.043-.4,8.128-.775t8.239-.641c.092,0,.139-.062.139-.186s-.047-.187-.139-.187A74.885,74.885,0,0,0,140.52,11.181Zm-19.289,5.983a8.938,8.938,0,0,1-.194-.949c-.045-.311-.093-.611-.139-.894a6.553,6.553,0,0,0-.18-.8.7.7,0,0,0-.581-.534,1.84,1.84,0,0,0-.942.16,6.617,6.617,0,0,0-1.177.748,13.064,13.064,0,0,0-1.22,1.066c-.4.391-.775.8-1.134,1.216s-.661.8-.9,1.135q.054-.88.1-1.509t.1-1.161c0-.124-.028-.2-.083-.24a.265.265,0,0,0-.208-.027.5.5,0,0,0-.222.106.223.223,0,0,0-.1.161c-.055.374-.106.708-.152,1s-.093.571-.139.83-.087.519-.124.787-.083.571-.139.908a.526.526,0,0,0,.125.454c.119.16.281.167.485.026q.581-.72,1.218-1.428t1.26-1.322c.415-.409.817-.777,1.2-1.109a10.2,10.2,0,0,1,1.081-.814c.461-.3.737-.249.831.161a6.885,6.885,0,0,1,.138.719c.036.267.077.545.124.828a8.409,8.409,0,0,0,.18.842,4.521,4.521,0,0,0,.306.815c.017.089.092.155.221.2a.968.968,0,0,0,.386.053.419.419,0,0,0,.291-.12c.065-.072.06-.187-.014-.348A3.85,3.85,0,0,1,121.231,17.164Zm-12.847-6.753a.232.232,0,0,0-.194-.133.44.44,0,0,0-.373.161.567.567,0,0,0-.125.36.69.69,0,0,0,.125.387.566.566,0,0,0,.373.24.772.772,0,0,0,.679-.094c.194-.134.282-.253.263-.36a.456.456,0,0,0-.249-.374,1.211,1.211,0,0,0-.471-.079A.242.242,0,0,0,108.384,10.411Zm-4.43,5.065a4.734,4.734,0,0,0-2.174.32A5.532,5.532,0,0,0,99.869,17.1c-.582.6-.568,1.323-.973,2.177l-.508-.72c0-.268,0-.531.014-.788s.014-.5.014-.722V16.5a.356.356,0,0,0-.125-.321.436.436,0,0,0-.277-.066.513.513,0,0,0-.263.094.227.227,0,0,0-.111.186c.017.3.036.578.055.829s.033.515.041.8.015.6.015.947v1.27c0,.249.05.382.152.4a.507.507,0,0,0,.374-.162q.388-.56.76-1.175a9.6,9.6,0,0,1,.846-1.176c.313-.373.33-.715.727-1.028a7.468,7.468,0,0,1,1.767-.761,4.7,4.7,0,0,1,.649-.161,3.1,3.1,0,0,1,.707-.026,4.8,4.8,0,0,1,.859.146c.313.082.692.2,1.135.362a.7.7,0,0,0,.332.026.541.541,0,0,0,.263-.107.236.236,0,0,0,.1-.187c0-.071-.054-.133-.166-.186A5.749,5.749,0,0,0,103.955,15.476ZM95.558.362A16.092,16.092,0,0,0,92.138,0a22.975,22.975,0,0,0-3.476.266Q86.93.534,85.38.881A49.669,49.669,0,0,0,78.843,2.7a27.286,27.286,0,0,0-5.982,2.938.533.533,0,0,0-.166.279c-.017.1.038.192.166.281a2.491,2.491,0,0,0,.873.281,7.541,7.541,0,0,0,1.038.067c.2,0,.3-.094.3-.281s-.1-.281-.3-.281a5.575,5.575,0,0,1-.568-.027,1.9,1.9,0,0,1-.568-.162q1.745-.959,3.545-1.788a28.481,28.481,0,0,1,3.656-1.389,42.179,42.179,0,0,1,5.137-1.309A38.529,38.529,0,0,1,91.057.695q1.136-.057,2.285,0A12.51,12.51,0,0,1,95.584,1a8.991,8.991,0,0,1,2.063.748,6.7,6.7,0,0,1,1.774,1.322,5.231,5.231,0,0,1,1.217,1.588,5.9,5.9,0,0,1,.569,1.884,6.09,6.09,0,0,1-.084,2,5.362,5.362,0,0,1-.788,1.9,7.013,7.013,0,0,1-1.814,1.91,12.02,12.02,0,0,1-2.368,1.322,19.066,19.066,0,0,1-2.631.881q-1.357.346-2.6.587.887-1.522,1.538-2.844A17.6,17.6,0,0,0,93.55,9.454c.017-.089-.047-.134-.195-.134s-.222.045-.222.134q-.3.775-.65,1.483t-.735,1.4q-.388.7-.859,1.43t-1.025,1.562q-2.3.269-4.527.321a24.117,24.117,0,0,1-4.5-.321c-.092,0-.17.063-.235.188a.246.246,0,0,0,.041.32,31.426,31.426,0,0,0,4.416.495,20.068,20.068,0,0,0,4.363-.282,25.982,25.982,0,0,1-1.7,2.364q-.9,1.108-1.954,2.362c-.092.108-.078.193.042.256a.253.253,0,0,0,.318-.04c.407-.391.812-.81,1.22-1.255s.791-.886,1.162-1.322.716-.859,1.038-1.269.6-.774.817-1.095a26.22,26.22,0,0,0,3.795-.842,24.24,24.24,0,0,0,3.518-1.375,15.417,15.417,0,0,0,1.647-1.068,9.154,9.154,0,0,0,1.411-1.3,6.406,6.406,0,0,0,1.01-1.536,5.249,5.249,0,0,0,.472-1.789,5.211,5.211,0,0,0-.083-1.923,6.962,6.962,0,0,0-.706-1.829A7.341,7.341,0,0,0,98.642,1.6,9.522,9.522,0,0,0,95.558.362ZM71.542,15.894a8.658,8.658,0,0,1-.195-.949c-.047-.311-.093-.611-.139-.894a6.557,6.557,0,0,0-.179-.8.7.7,0,0,0-.582-.534,1.849,1.849,0,0,0-.943.16,6.629,6.629,0,0,0-1.175.748,13.363,13.363,0,0,0-1.219,1.066c-.4.391-.776.8-1.135,1.216s-.662.8-.9,1.135q.056-.88.1-1.509t.1-1.162c0-.124-.028-.2-.083-.24a.264.264,0,0,0-.208-.027.5.5,0,0,0-.222.106.22.22,0,0,0-.1.161q-.083.561-.153,1c-.046.294-.093.571-.138.83s-.089.519-.125.787-.083.571-.139.908a.525.525,0,0,0,.126.454c.118.161.281.168.485.026q.581-.719,1.218-1.428t1.26-1.322c.415-.409.816-.777,1.2-1.109a10.508,10.508,0,0,1,1.079-.814c.462-.3.738-.249.832.161a6.167,6.167,0,0,1,.139.72c.036.267.077.544.125.828a8.119,8.119,0,0,0,.179.842,4.564,4.564,0,0,0,.305.815c.019.089.091.155.222.2a.974.974,0,0,0,.388.053.42.42,0,0,0,.291-.12c.063-.071.059-.186-.014-.347A3.785,3.785,0,0,1,71.542,15.894ZM55.049,13.5a.381.381,0,0,1-.028.522.584.584,0,0,1-.554.279,1.687,1.687,0,0,1-.8-.172,2.277,2.277,0,0,1,.693-.534C54.689,13.382,54.921,13.351,55.049,13.5Zm5.5,2.805a18.3,18.3,0,0,1-4,1.082,5.315,5.315,0,0,1-1,.065,3.639,3.639,0,0,1-.955-.147,2.9,2.9,0,0,1-.831-.387,1.62,1.62,0,0,1-.568-.68,1.266,1.266,0,0,1-.124-.8,2.548,2.548,0,0,1,.291-.829,1.747,1.747,0,0,0,.817.267,2.171,2.171,0,0,0,.8-.094,2.227,2.227,0,0,0,.665-.334,1.415,1.415,0,0,0,.43-.481,1.011,1.011,0,0,0,.083-.414.585.585,0,0,0-.153-.4,1.057,1.057,0,0,0-.457-.281,2.137,2.137,0,0,0-.8-.082,2.257,2.257,0,0,0-1.315.6,3.562,3.562,0,0,0-.873,1.228,3.19,3.19,0,0,0-.263,1.456,2.1,2.1,0,0,0,.54,1.309,2.418,2.418,0,0,0,1.219.747,5.158,5.158,0,0,0,1.509.16,8.279,8.279,0,0,0,1.565-.2q.775-.171,1.357-.361,1.107-.372,2.715-1.055a22.714,22.714,0,0,0,3.185-1.668.327.327,0,0,0,.179-.361c-.028-.151-.087-.173-.179-.067Q62.555,15.521,60.547,16.308ZM43.142,13.5a.383.383,0,0,1-.028.522.586.586,0,0,1-.555.279,1.687,1.687,0,0,1-.8-.172,2.274,2.274,0,0,1,.692-.534C42.782,13.382,43.011,13.351,43.142,13.5Zm5.5,2.805a18.3,18.3,0,0,1-4,1.082,5.309,5.309,0,0,1-1,.065,3.636,3.636,0,0,1-.956-.147,2.916,2.916,0,0,1-.831-.387,1.606,1.606,0,0,1-.568-.68,1.25,1.25,0,0,1-.124-.8,2.5,2.5,0,0,1,.29-.829,1.747,1.747,0,0,0,.817.267,2.171,2.171,0,0,0,.8-.094,2.227,2.227,0,0,0,.665-.334,1.407,1.407,0,0,0,.429-.481,1,1,0,0,0,.084-.414.588.588,0,0,0-.153-.4,1.069,1.069,0,0,0-.456-.281,2.143,2.143,0,0,0-.8-.082,2.256,2.256,0,0,0-1.315.6,3.554,3.554,0,0,0-.873,1.228,3.182,3.182,0,0,0-.263,1.456,2.1,2.1,0,0,0,.54,1.309,2.413,2.413,0,0,0,1.219.747,5.153,5.153,0,0,0,1.509.16,8.285,8.285,0,0,0,1.565-.2q.775-.171,1.357-.361,1.106-.372,2.714-1.055a22.748,22.748,0,0,0,3.185-1.668.329.329,0,0,0,.18-.361c-.028-.151-.089-.173-.18-.067Q50.647,15.521,48.639,16.308ZM38.322,13.691a4.738,4.738,0,0,0-2.174.32,5.536,5.536,0,0,0-1.911,1.308A8.048,8.048,0,0,0,32.755,17.5v-.72q0-.4.014-.788c.01-.257.014-.5.014-.721v-.547a.356.356,0,0,0-.124-.321.436.436,0,0,0-.277-.066.523.523,0,0,0-.263.094.229.229,0,0,0-.111.186c.019.3.037.578.056.829s.032.515.041.8.014.6.014.947v1.269c0,.249.051.382.153.4a.508.508,0,0,0,.374-.162q.388-.56.761-1.175a9.466,9.466,0,0,1,.845-1.176,7.3,7.3,0,0,1,1.066-1.028,5.08,5.08,0,0,1,1.427-.761,4.837,4.837,0,0,1,.651-.161,3.063,3.063,0,0,1,.706-.026,4.732,4.732,0,0,1,.858.146c.314.082.693.2,1.136.361a.7.7,0,0,0,.332.026.538.538,0,0,0,.263-.107.235.235,0,0,0,.1-.187c0-.071-.056-.133-.167-.186A5.724,5.724,0,0,0,38.322,13.691ZM21.111,23.6a13.751,13.751,0,0,1-1.094,3.058,7.683,7.683,0,0,1-1.869,2.217,4.943,4.943,0,0,1-2.783,1.068q-.665,0-.734-.468a2.338,2.338,0,0,1,.139-1.082,7.132,7.132,0,0,1,.526-1.187,6.582,6.582,0,0,1,.485-.789,14.623,14.623,0,0,1,1.108-1.75,19.883,19.883,0,0,1,1.357-1.656A15.524,15.524,0,0,1,19.712,21.6a9.53,9.53,0,0,1,1.468-1.029A6.891,6.891,0,0,1,21.111,23.6Zm8.1-8.333q-1.246.441-2.465.976T24.3,17.455q-1.232.682-2.561,1.511A4.115,4.115,0,0,0,20.986,17a3.59,3.59,0,0,0-1.163-1.055A2.69,2.69,0,0,0,18.6,15.56a4.445,4.445,0,0,0-1.274.106,6.146,6.146,0,0,0-1.233.429c-.4.186-.761.378-1.093.573q-1.219.618-2.368,1.283l-2.3,1.334q-1.149.668-2.326,1.255a16.746,16.746,0,0,1-2.451.989,8.388,8.388,0,0,1-1.108.266,6.018,6.018,0,0,1-1.191.095,3.031,3.031,0,0,1-1.094-.228,2.074,2.074,0,0,1-.872-.694,3.558,3.558,0,0,1-.457-1.322,5.686,5.686,0,0,1-.014-1.43,6.574,6.574,0,0,1,.319-1.4,8.231,8.231,0,0,1,.54-1.241,12.818,12.818,0,0,1,1.7-2.711A23.379,23.379,0,0,1,5.56,10.579a18.545,18.545,0,0,1,4.666-3.164A14.783,14.783,0,0,1,15.78,6.092a17.384,17.384,0,0,1,1.952,0,9.575,9.575,0,0,1,1.994.32,8.036,8.036,0,0,1,1.855.762A5.324,5.324,0,0,1,23.118,8.5q0,.161.166.053c.111-.07.12-.151.028-.24a5.014,5.014,0,0,0-1.841-1.8,8.434,8.434,0,0,0-2.423-.894,12.193,12.193,0,0,0-2.714-.24,26.025,26.025,0,0,0-2.714.186A16.284,16.284,0,0,0,8.648,7.294a17.224,17.224,0,0,0-4.279,3.285,21.8,21.8,0,0,0-1.8,1.977,13.4,13.4,0,0,0-1.523,2.336,10.085,10.085,0,0,0-.914,2.6A6.576,6.576,0,0,0,.16,20.247,2.656,2.656,0,0,0,1.226,22.01a3.591,3.591,0,0,0,1.828.546,6.939,6.939,0,0,0,2.174-.281A14.627,14.627,0,0,0,7.3,21.529a15.315,15.315,0,0,0,2.2-1q1.15-.629,2.326-1.321c.785-.464,1.561-.912,2.326-1.35a20.036,20.036,0,0,1,2.174-1.081,7.768,7.768,0,0,1,1.869-.548,1.949,1.949,0,0,1,1.426.281,2.818,2.818,0,0,1,.79,1,4.53,4.53,0,0,1,.429,1.883,3.241,3.241,0,0,1-.706.589,5.554,5.554,0,0,0-.873.694,17.136,17.136,0,0,0-2.381,2.443q-1.053,1.322-2.078,2.763-.221.4-.485.908a10.086,10.086,0,0,0-.47,1.055,5.4,5.4,0,0,0-.291,1.083,2.334,2.334,0,0,0,.056,1.015,1.088,1.088,0,0,0,.6.746,2.077,2.077,0,0,0,.955.161,3.963,3.963,0,0,0,1.053-.2q.526-.172.886-.306a6.546,6.546,0,0,0,2.243-1.456,11.924,11.924,0,0,0,1.634-2.069q.276-.694.554-1.548a12.549,12.549,0,0,0,.429-1.763,12.251,12.251,0,0,0,.166-1.831,6.361,6.361,0,0,0-.208-1.747q1.19-.855,2.354-1.562t2.492-1.4q.86-.4,1.537-.682c.452-.186.882-.356,1.288-.507s.8-.288,1.177-.413.78-.258,1.2-.4a.311.311,0,0,0,.166-.307c-.019-.116-.13-.173-.333-.173Q30.456,14.824,29.211,15.266Z" transform="translate(94.867 102.357)" fill="#fff"/>
    <path id="Vector-18" data-name="Vector" d="M151.625,27.138a10.374,10.374,0,0,1-2.631.92q-.443.055-.984.08a3.265,3.265,0,0,1-1-.094,1.68,1.68,0,0,1-.76-.413,1.211,1.211,0,0,1-.305-.908,2.716,2.716,0,0,1,.042-.895,4.233,4.233,0,0,1,.3-.92,8,8,0,0,1,.471-.882q.263-.426.538-.8c.2-.284.439-.586.707-.908s.56-.641.873-.962a12.347,12.347,0,0,1,1.01-.921,9.387,9.387,0,0,1,1.122-.788q.831-.506,1.551-.907t1.4-.735c.452-.222.913-.428,1.384-.614s.974-.361,1.509-.522a9.659,9.659,0,0,1-.54,4.553,11.43,11.43,0,0,1-2.507,3.967A7.307,7.307,0,0,1,151.625,27.138Zm5-11.191a.659.659,0,0,1,.069.281,7.421,7.421,0,0,0-.9.321,7.187,7.187,0,0,1-.9.32q.359-.213.817-.535t.817-.614C156.545,15.775,156.578,15.849,156.623,15.947Zm3.864-.427a11.942,11.942,0,0,0-3.269.52,3.412,3.412,0,0,0-.124-.574,1.044,1.044,0,0,0-.18-.333.682.682,0,0,0-.25-.188.4.4,0,0,0-.386.055,10.365,10.365,0,0,0-1.067.827q-.513.454-1.025.829a5.044,5.044,0,0,1-1.108.614,2.9,2.9,0,0,1-1.315.187,1.025,1.025,0,0,1,.124-.761,1.742,1.742,0,0,1,.582-.562,3.1,3.1,0,0,1,.873-.347,3.412,3.412,0,0,1,1-.092.872.872,0,0,0,.4-.081.647.647,0,0,0,.236-.2.413.413,0,0,0,.083-.228c0-.071-.028-.108-.083-.108a6.024,6.024,0,0,0-1.8.055,3.56,3.56,0,0,0-1.33.52,2.155,2.155,0,0,0-.761.867,1.69,1.69,0,0,0-.124,1.068.808.808,0,0,0,.193.36.547.547,0,0,0,.25.174,1.128,1.128,0,0,0,.415.04,1.188,1.188,0,0,0,.5-.146q-1.052.64-2.1,1.348a18.255,18.255,0,0,0-1.967,1.523,13.892,13.892,0,0,0-1.661,1.762,8.765,8.765,0,0,0-1.218,2.1,5.771,5.771,0,0,0-.457,1.6,2.347,2.347,0,0,0,.291,1.576,1.509,1.509,0,0,0,.665.587,3.751,3.751,0,0,0,.956.308,5.7,5.7,0,0,0,1.025.092,4.108,4.108,0,0,0,.872-.079,6.994,6.994,0,0,0,2.382-.64,10.348,10.348,0,0,0,2.106-1.324,11.552,11.552,0,0,0,1.758-1.776,13.11,13.11,0,0,0,1.342-2.03,9.932,9.932,0,0,0,1.053-3.1,9.8,9.8,0,0,0,0-3.285,11.271,11.271,0,0,1,1.5-.347,12.169,12.169,0,0,1,1.385-.133q.691-.026,1.384,0c.461.017.96.045,1.5.08a1.919,1.919,0,0,0,.679-.055.8.8,0,0,0,.36-.187.161.161,0,0,0,.027-.213.414.414,0,0,0-.318-.132A31.168,31.168,0,0,0,160.487,15.52Zm-12.615,1.644a8.936,8.936,0,0,1-.194-.949c-.047-.311-.092-.611-.138-.894a6.442,6.442,0,0,0-.181-.8.7.7,0,0,0-.581-.534,1.843,1.843,0,0,0-.942.16,6.66,6.66,0,0,0-1.177.748,13.379,13.379,0,0,0-1.22,1.066c-.4.391-.775.8-1.134,1.216s-.661.8-.9,1.135q.055-.88.1-1.509t.1-1.161c0-.124-.028-.2-.083-.24a.265.265,0,0,0-.208-.027.5.5,0,0,0-.223.106.223.223,0,0,0-.1.161c-.054.374-.106.708-.152,1s-.093.571-.139.83-.087.519-.124.787-.083.571-.138.908a.524.524,0,0,0,.125.454c.118.16.281.167.485.026q.581-.72,1.218-1.428t1.26-1.322c.415-.409.817-.777,1.2-1.109a10.075,10.075,0,0,1,1.08-.814c.461-.3.737-.249.831.161a6.441,6.441,0,0,1,.139.719c.036.267.077.545.124.828a8.1,8.1,0,0,0,.181.842,4.468,4.468,0,0,0,.3.815c.019.089.092.155.222.2a.974.974,0,0,0,.388.053.424.424,0,0,0,.291-.12c.063-.072.06-.187-.015-.348A3.872,3.872,0,0,1,147.872,17.164ZM136.311,9.818a.237.237,0,0,0-.194-.133.442.442,0,0,0-.374.161.56.56,0,0,0-.125.36.681.681,0,0,0,.125.387.564.564,0,0,0,.374.239.769.769,0,0,0,.678-.092c.194-.134.283-.254.263-.361a.45.45,0,0,0-.249-.374,1.211,1.211,0,0,0-.471-.079A.248.248,0,0,0,136.311,9.818Zm2.367,7.851a3.626,3.626,0,0,1-1.924.4,3.465,3.465,0,0,1-1.759-.665,4.36,4.36,0,0,1-1.314-1.523c-.093-.177-.212-.24-.361-.186a.677.677,0,0,0-.305.186,1.4,1.4,0,0,0,.25.909,4.306,4.306,0,0,0,1.33,1.456,3.775,3.775,0,0,0,1.911.68,4.174,4.174,0,0,0,2.188-.481,5.848,5.848,0,0,0,2.131-2,.458.458,0,0,0,.083-.293.832.832,0,0,0-.055-.322c-.036-.088-.087-.132-.153-.132s-.142.08-.235.24A4.6,4.6,0,0,1,138.678,17.67Zm-26.615,1.173a2.425,2.425,0,0,1-1.567-.162,2.467,2.467,0,0,1-1.085-1.094,4.15,4.15,0,0,1-.463-1.759c-.01-.188-.078-.279-.205-.27a.53.53,0,0,0-.29.088,1.6,1.6,0,0,0-.12.9,4.027,4.027,0,0,0,.5,1.7,2.676,2.676,0,0,0,1.192,1.15,2.8,2.8,0,0,0,1.789.159,5.172,5.172,0,0,0,2.262-1.252.535.535,0,0,0,.16-.246.975.975,0,0,0,.068-.311c0-.091-.02-.146-.069-.164s-.133.035-.255.156A4.125,4.125,0,0,1,112.063,18.843Zm28.458-7.661q-3.961.426-8,.827c-1.015.09-1.976.173-2.88.254s-1.9.164-2.991.254a9.1,9.1,0,0,1,.374-.975,2.778,2.778,0,0,0,.235-.761c.019-.126-.013-.2-.1-.228a.48.48,0,0,0-.291.013,1.066,1.066,0,0,0-.333.188.492.492,0,0,0-.194.294,4.671,4.671,0,0,0-.249.668c-.074.249-.158.524-.25.827q-1.025.081-1.883.16c-.572.054-1.12.094-1.647.12s-1.048.045-1.564.053-1.062,0-1.634-.013c-.26,0-.4.053-.416.16s.12.169.416.187c.553.055,1.064.089,1.536.107s.956.023,1.454.013,1.034-.031,1.607-.065,1.228-.082,1.966-.135c-.055.2-.12.387-.193.574s-.153.391-.236.613-.166.477-.249.761-.18.625-.291,1.016a8.684,8.684,0,0,0-.291,1.069,7.173,7.173,0,0,0-.152,1.174,3.326,3.326,0,0,0,.124,1.108,1.607,1.607,0,0,0,.568.842,1.643,1.643,0,0,0,1.15.24,4.8,4.8,0,0,0,1.357-.374,9.112,9.112,0,0,0,1.287-.682,11,11,0,0,0,.942-.654,5.188,5.188,0,0,0,.761-.547c.287-.241.568-.489.846-.748s.539-.511.788-.762.466-.462.651-.641a.388.388,0,0,0,.125-.32c-.011-.124-.106-.143-.291-.053q-.971.8-2.132,1.656t-2.271,1.521a5.707,5.707,0,0,1-.54.28,6.142,6.142,0,0,1-.638.255,3.2,3.2,0,0,1-.623.146,1.42,1.42,0,0,1-.527-.013.865.865,0,0,1-.623-.548,2.231,2.231,0,0,1-.111-.947,6.188,6.188,0,0,1,.193-1.109q.153-.574.263-1c.111-.411.217-.756.319-1.042s.189-.537.264-.761.141-.423.208-.6.124-.356.179-.533q1.523-.133,2.811-.255t2.81-.254q4.043-.4,8.128-.775t8.239-.641c.092,0,.139-.062.139-.186s-.047-.187-.139-.187A74.885,74.885,0,0,0,140.52,11.181Zm-19.289,5.983a8.938,8.938,0,0,1-.194-.949c-.045-.311-.093-.611-.139-.894a6.553,6.553,0,0,0-.18-.8.7.7,0,0,0-.581-.534,1.84,1.84,0,0,0-.942.16,6.617,6.617,0,0,0-1.177.748,13.064,13.064,0,0,0-1.22,1.066c-.4.391-.775.8-1.134,1.216s-.661.8-.9,1.135q.054-.88.1-1.509t.1-1.161c0-.124-.028-.2-.083-.24a.265.265,0,0,0-.208-.027.5.5,0,0,0-.222.106.223.223,0,0,0-.1.161c-.055.374-.106.708-.152,1s-.093.571-.139.83-.087.519-.124.787-.083.571-.139.908a.526.526,0,0,0,.125.454c.119.16.281.167.485.026q.581-.72,1.218-1.428t1.26-1.322c.415-.409.817-.777,1.2-1.109a10.2,10.2,0,0,1,1.081-.814c.461-.3.737-.249.831.161a6.885,6.885,0,0,1,.138.719c.036.267.077.545.124.828a8.409,8.409,0,0,0,.18.842,4.521,4.521,0,0,0,.306.815c.017.089.092.155.221.2a.968.968,0,0,0,.386.053.419.419,0,0,0,.291-.12c.065-.072.06-.187-.014-.348A3.85,3.85,0,0,1,121.231,17.164Zm-12.847-6.753a.232.232,0,0,0-.194-.133.44.44,0,0,0-.373.161.567.567,0,0,0-.125.36.69.69,0,0,0,.125.387.566.566,0,0,0,.373.24.772.772,0,0,0,.679-.094c.194-.134.282-.253.263-.36a.456.456,0,0,0-.249-.374,1.211,1.211,0,0,0-.471-.079A.242.242,0,0,0,108.384,10.411Zm-4.43,5.065a4.734,4.734,0,0,0-2.174.32A5.532,5.532,0,0,0,99.869,17.1c-.582.6-.568,1.323-.973,2.177l-.508-.72c0-.268,0-.531.014-.788s.014-.5.014-.722V16.5a.356.356,0,0,0-.125-.321.436.436,0,0,0-.277-.066.513.513,0,0,0-.263.094.227.227,0,0,0-.111.186c.017.3.036.578.055.829s.033.515.041.8.015.6.015.947v1.27c0,.249.05.382.152.4a.507.507,0,0,0,.374-.162q.388-.56.76-1.175a9.6,9.6,0,0,1,.846-1.176c.313-.373.33-.715.727-1.028a7.468,7.468,0,0,1,1.767-.761,4.7,4.7,0,0,1,.649-.161,3.1,3.1,0,0,1,.707-.026,4.8,4.8,0,0,1,.859.146c.313.082.692.2,1.135.362a.7.7,0,0,0,.332.026.541.541,0,0,0,.263-.107.236.236,0,0,0,.1-.187c0-.071-.054-.133-.166-.186A5.749,5.749,0,0,0,103.955,15.476ZM95.558.362A16.092,16.092,0,0,0,92.138,0a22.975,22.975,0,0,0-3.476.266Q86.93.534,85.38.881A49.669,49.669,0,0,0,78.843,2.7a27.286,27.286,0,0,0-5.982,2.938.533.533,0,0,0-.166.279c-.017.1.038.192.166.281a2.491,2.491,0,0,0,.873.281,7.541,7.541,0,0,0,1.038.067c.2,0,.3-.094.3-.281s-.1-.281-.3-.281a5.575,5.575,0,0,1-.568-.027,1.9,1.9,0,0,1-.568-.162q1.745-.959,3.545-1.788a28.481,28.481,0,0,1,3.656-1.389,42.179,42.179,0,0,1,5.137-1.309A38.529,38.529,0,0,1,91.057.695q1.136-.057,2.285,0A12.51,12.51,0,0,1,95.584,1a8.991,8.991,0,0,1,2.063.748,6.7,6.7,0,0,1,1.774,1.322,5.231,5.231,0,0,1,1.217,1.588,5.9,5.9,0,0,1,.569,1.884,6.09,6.09,0,0,1-.084,2,5.362,5.362,0,0,1-.788,1.9,7.013,7.013,0,0,1-1.814,1.91,12.02,12.02,0,0,1-2.368,1.322,19.066,19.066,0,0,1-2.631.881q-1.357.346-2.6.587.887-1.522,1.538-2.844A17.6,17.6,0,0,0,93.55,9.454c.017-.089-.047-.134-.195-.134s-.222.045-.222.134q-.3.775-.65,1.483t-.735,1.4q-.388.7-.859,1.43t-1.025,1.562q-2.3.269-4.527.321a24.117,24.117,0,0,1-4.5-.321c-.092,0-.17.063-.235.188a.246.246,0,0,0,.041.32,31.426,31.426,0,0,0,4.416.495,20.068,20.068,0,0,0,4.363-.282,25.982,25.982,0,0,1-1.7,2.364q-.9,1.108-1.954,2.362c-.092.108-.078.193.042.256a.253.253,0,0,0,.318-.04c.407-.391.812-.81,1.22-1.255s.791-.886,1.162-1.322.716-.859,1.038-1.269.6-.774.817-1.095a26.22,26.22,0,0,0,3.795-.842,24.24,24.24,0,0,0,3.518-1.375,15.417,15.417,0,0,0,1.647-1.068,9.154,9.154,0,0,0,1.411-1.3,6.406,6.406,0,0,0,1.01-1.536,5.249,5.249,0,0,0,.472-1.789,5.211,5.211,0,0,0-.083-1.923,6.962,6.962,0,0,0-.706-1.829A7.341,7.341,0,0,0,98.642,1.6,9.522,9.522,0,0,0,95.558.362ZM71.542,15.894a8.658,8.658,0,0,1-.195-.949c-.047-.311-.093-.611-.139-.894a6.557,6.557,0,0,0-.179-.8.7.7,0,0,0-.582-.534,1.849,1.849,0,0,0-.943.16,6.629,6.629,0,0,0-1.175.748,13.363,13.363,0,0,0-1.219,1.066c-.4.391-.776.8-1.135,1.216s-.662.8-.9,1.135q.056-.88.1-1.509t.1-1.162c0-.124-.028-.2-.083-.24a.264.264,0,0,0-.208-.027.5.5,0,0,0-.222.106.22.22,0,0,0-.1.161q-.083.561-.153,1c-.046.294-.093.571-.138.83s-.089.519-.125.787-.083.571-.139.908a.525.525,0,0,0,.126.454c.118.161.281.168.485.026q.581-.719,1.218-1.428t1.26-1.322c.415-.409.816-.777,1.2-1.109a10.508,10.508,0,0,1,1.079-.814c.462-.3.738-.249.832.161a6.167,6.167,0,0,1,.139.72c.036.267.077.544.125.828a8.119,8.119,0,0,0,.179.842,4.564,4.564,0,0,0,.305.815c.019.089.091.155.222.2a.974.974,0,0,0,.388.053.42.42,0,0,0,.291-.12c.063-.071.059-.186-.014-.347A3.785,3.785,0,0,1,71.542,15.894ZM55.049,13.5a.381.381,0,0,1-.028.522.584.584,0,0,1-.554.279,1.687,1.687,0,0,1-.8-.172,2.277,2.277,0,0,1,.693-.534C54.689,13.382,54.921,13.351,55.049,13.5Zm5.5,2.805a18.3,18.3,0,0,1-4,1.082,5.315,5.315,0,0,1-1,.065,3.639,3.639,0,0,1-.955-.147,2.9,2.9,0,0,1-.831-.387,1.62,1.62,0,0,1-.568-.68,1.266,1.266,0,0,1-.124-.8,2.548,2.548,0,0,1,.291-.829,1.747,1.747,0,0,0,.817.267,2.171,2.171,0,0,0,.8-.094,2.227,2.227,0,0,0,.665-.334,1.415,1.415,0,0,0,.43-.481,1.011,1.011,0,0,0,.083-.414.585.585,0,0,0-.153-.4,1.057,1.057,0,0,0-.457-.281,2.137,2.137,0,0,0-.8-.082,2.257,2.257,0,0,0-1.315.6,3.562,3.562,0,0,0-.873,1.228,3.19,3.19,0,0,0-.263,1.456,2.1,2.1,0,0,0,.54,1.309,2.418,2.418,0,0,0,1.219.747,5.158,5.158,0,0,0,1.509.16,8.279,8.279,0,0,0,1.565-.2q.775-.171,1.357-.361,1.107-.372,2.715-1.055a22.714,22.714,0,0,0,3.185-1.668.327.327,0,0,0,.179-.361c-.028-.151-.087-.173-.179-.067Q62.555,15.521,60.547,16.308ZM43.142,13.5a.383.383,0,0,1-.028.522.586.586,0,0,1-.555.279,1.687,1.687,0,0,1-.8-.172,2.274,2.274,0,0,1,.692-.534C42.782,13.382,43.011,13.351,43.142,13.5Zm5.5,2.805a18.3,18.3,0,0,1-4,1.082,5.309,5.309,0,0,1-1,.065,3.636,3.636,0,0,1-.956-.147,2.916,2.916,0,0,1-.831-.387,1.606,1.606,0,0,1-.568-.68,1.25,1.25,0,0,1-.124-.8,2.5,2.5,0,0,1,.29-.829,1.747,1.747,0,0,0,.817.267,2.171,2.171,0,0,0,.8-.094,2.227,2.227,0,0,0,.665-.334,1.407,1.407,0,0,0,.429-.481,1,1,0,0,0,.084-.414.588.588,0,0,0-.153-.4,1.069,1.069,0,0,0-.456-.281,2.143,2.143,0,0,0-.8-.082,2.256,2.256,0,0,0-1.315.6,3.554,3.554,0,0,0-.873,1.228,3.182,3.182,0,0,0-.263,1.456,2.1,2.1,0,0,0,.54,1.309,2.413,2.413,0,0,0,1.219.747,5.153,5.153,0,0,0,1.509.16,8.285,8.285,0,0,0,1.565-.2q.775-.171,1.357-.361,1.106-.372,2.714-1.055a22.748,22.748,0,0,0,3.185-1.668.329.329,0,0,0,.18-.361c-.028-.151-.089-.173-.18-.067Q50.647,15.521,48.639,16.308ZM38.322,13.691a4.738,4.738,0,0,0-2.174.32,5.536,5.536,0,0,0-1.911,1.308A8.048,8.048,0,0,0,32.755,17.5v-.72q0-.4.014-.788c.01-.257.014-.5.014-.721v-.547a.356.356,0,0,0-.124-.321.436.436,0,0,0-.277-.066.523.523,0,0,0-.263.094.229.229,0,0,0-.111.186c.019.3.037.578.056.829s.032.515.041.8.014.6.014.947v1.269c0,.249.051.382.153.4a.508.508,0,0,0,.374-.162q.388-.56.761-1.175a9.466,9.466,0,0,1,.845-1.176,7.3,7.3,0,0,1,1.066-1.028,5.08,5.08,0,0,1,1.427-.761,4.837,4.837,0,0,1,.651-.161,3.063,3.063,0,0,1,.706-.026,4.732,4.732,0,0,1,.858.146c.314.082.693.2,1.136.361a.7.7,0,0,0,.332.026.538.538,0,0,0,.263-.107.235.235,0,0,0,.1-.187c0-.071-.056-.133-.167-.186A5.724,5.724,0,0,0,38.322,13.691ZM21.111,23.6a13.751,13.751,0,0,1-1.094,3.058,7.683,7.683,0,0,1-1.869,2.217,4.943,4.943,0,0,1-2.783,1.068q-.665,0-.734-.468a2.338,2.338,0,0,1,.139-1.082,7.132,7.132,0,0,1,.526-1.187,6.582,6.582,0,0,1,.485-.789,14.623,14.623,0,0,1,1.108-1.75,19.883,19.883,0,0,1,1.357-1.656A15.524,15.524,0,0,1,19.712,21.6a9.53,9.53,0,0,1,1.468-1.029A6.891,6.891,0,0,1,21.111,23.6Zm8.1-8.333q-1.246.441-2.465.976T24.3,17.455q-1.232.682-2.561,1.511A4.115,4.115,0,0,0,20.986,17a3.59,3.59,0,0,0-1.163-1.055A2.69,2.69,0,0,0,18.6,15.56a4.445,4.445,0,0,0-1.274.106,6.146,6.146,0,0,0-1.233.429c-.4.186-.761.378-1.093.573q-1.219.618-2.368,1.283l-2.3,1.334q-1.149.668-2.326,1.255a16.746,16.746,0,0,1-2.451.989,8.388,8.388,0,0,1-1.108.266,6.018,6.018,0,0,1-1.191.095,3.031,3.031,0,0,1-1.094-.228,2.074,2.074,0,0,1-.872-.694,3.558,3.558,0,0,1-.457-1.322,5.686,5.686,0,0,1-.014-1.43,6.574,6.574,0,0,1,.319-1.4,8.231,8.231,0,0,1,.54-1.241,12.818,12.818,0,0,1,1.7-2.711A23.379,23.379,0,0,1,5.56,10.579a18.545,18.545,0,0,1,4.666-3.164A14.783,14.783,0,0,1,15.78,6.092a17.384,17.384,0,0,1,1.952,0,9.575,9.575,0,0,1,1.994.32,8.036,8.036,0,0,1,1.855.762A5.324,5.324,0,0,1,23.118,8.5q0,.161.166.053c.111-.07.12-.151.028-.24a5.014,5.014,0,0,0-1.841-1.8,8.434,8.434,0,0,0-2.423-.894,12.193,12.193,0,0,0-2.714-.24,26.025,26.025,0,0,0-2.714.186A16.284,16.284,0,0,0,8.648,7.294a17.224,17.224,0,0,0-4.279,3.285,21.8,21.8,0,0,0-1.8,1.977,13.4,13.4,0,0,0-1.523,2.336,10.085,10.085,0,0,0-.914,2.6A6.576,6.576,0,0,0,.16,20.247,2.656,2.656,0,0,0,1.226,22.01a3.591,3.591,0,0,0,1.828.546,6.939,6.939,0,0,0,2.174-.281A14.627,14.627,0,0,0,7.3,21.529a15.315,15.315,0,0,0,2.2-1q1.15-.629,2.326-1.321c.785-.464,1.561-.912,2.326-1.35a20.036,20.036,0,0,1,2.174-1.081,7.768,7.768,0,0,1,1.869-.548,1.949,1.949,0,0,1,1.426.281,2.818,2.818,0,0,1,.79,1,4.53,4.53,0,0,1,.429,1.883,3.241,3.241,0,0,1-.706.589,5.554,5.554,0,0,0-.873.694,17.136,17.136,0,0,0-2.381,2.443q-1.053,1.322-2.078,2.763-.221.4-.485.908a10.086,10.086,0,0,0-.47,1.055,5.4,5.4,0,0,0-.291,1.083,2.334,2.334,0,0,0,.056,1.015,1.088,1.088,0,0,0,.6.746,2.077,2.077,0,0,0,.955.161,3.963,3.963,0,0,0,1.053-.2q.526-.172.886-.306a6.546,6.546,0,0,0,2.243-1.456,11.924,11.924,0,0,0,1.634-2.069q.276-.694.554-1.548a12.549,12.549,0,0,0,.429-1.763,12.251,12.251,0,0,0,.166-1.831,6.361,6.361,0,0,0-.208-1.747q1.19-.855,2.354-1.562t2.492-1.4q.86-.4,1.537-.682c.452-.186.882-.356,1.288-.507s.8-.288,1.177-.413.78-.258,1.2-.4a.311.311,0,0,0,.166-.307c-.019-.116-.13-.173-.333-.173Q30.456,14.824,29.211,15.266Z" transform="translate(94.867 102.357)" fill="none" stroke="#fff" stroke-width="0.75"/>
    <path id="Vector-19" data-name="Vector" d="M0,0H189.336" transform="translate(70.12 100.303)" fill="none" stroke="#fff" stroke-width="1.25"/>
    <path id="Vector-20" data-name="Vector" d="M0,0H195V71.366H0Z" transform="translate(67 65)" fill="none"/>
    <g id="Group">
      <path id="Vector-21" data-name="Vector" d="M8.905,8.893H6.956l-.775-2.02H2.633L1.9,8.893H0L3.457,0h1.9Zm-3.3-3.518-1.223-3.3-1.2,3.3Z" transform="translate(69.968 139.508)" fill="#fff"/>
      <path id="Vector-22" data-name="Vector" d="M0,0H3.548A10.383,10.383,0,0,1,5.119.088a2.315,2.315,0,0,1,.926.367,2.29,2.29,0,0,1,.681.743A2.018,2.018,0,0,1,7,2.238a2.11,2.11,0,0,1-1.247,1.93A2.331,2.331,0,0,1,7,4.974a2.143,2.143,0,0,1,.436,1.34,2.655,2.655,0,0,1-.281,1.181,2.373,2.373,0,0,1-.769.915,2.524,2.524,0,0,1-1.2.421q-.448.049-2.161.061H0V0ZM1.792,1.48V3.537H2.966q1.047,0,1.3-.03a1.18,1.18,0,0,0,.723-.319.939.939,0,0,0,.263-.694.977.977,0,0,0-.227-.67,1.025,1.025,0,0,0-.675-.312q-.266-.031-1.531-.031Zm0,3.537V7.4H3.45A8.04,8.04,0,0,0,4.68,7.341a1.1,1.1,0,0,0,.651-.355,1.092,1.092,0,0,0,.251-.755,1.164,1.164,0,0,0-.194-.68,1.094,1.094,0,0,0-.56-.406,6.036,6.036,0,0,0-1.589-.128H1.792Z" transform="translate(82.814 139.508)" fill="#fff"/>
      <path id="Vector-23" data-name="Vector" d="M0,8.893V0H3.772A6.453,6.453,0,0,1,5.839.24a2.041,2.041,0,0,1,1.032.852,2.562,2.562,0,0,1,.388,1.4,2.381,2.381,0,0,1-.587,1.654,2.812,2.812,0,0,1-1.756.821,4.2,4.2,0,0,1,.959.746A10.121,10.121,0,0,1,6.9,7.158L7.979,8.893H5.835L4.54,6.958A12.636,12.636,0,0,0,3.6,5.65a1.373,1.373,0,0,0-.539-.37,2.945,2.945,0,0,0-.9-.1H1.791V8.893H0ZM1.792,3.761H3.118a6.887,6.887,0,0,0,1.61-.109.968.968,0,0,0,.5-.376,1.159,1.159,0,0,0,.182-.667,1.069,1.069,0,0,0-.239-.725A1.1,1.1,0,0,0,4.5,1.535Q4.281,1.5,3.191,1.5h-1.4V3.761Z" transform="translate(91.767 139.508)" fill="#fff"/>
      <path id="Vector-24" data-name="Vector" d="M8.905,8.893H6.956l-.775-2.02H2.634L1.9,8.893H0L3.457,0H5.351Zm-3.3-3.518-1.223-3.3-1.2,3.3Z" transform="translate(99.813 139.508)" fill="#fff"/>
      <path id="Vector-25" data-name="Vector" d="M0,8.893V0H1.744L5.376,5.939V0H7.041V8.893h-1.8l-3.578-5.8v5.8Z" transform="translate(109.686 139.508)" fill="#fff"/>
      <path id="Vector-26" data-name="Vector" d="M0,0H3.276A6.408,6.408,0,0,1,4.964.17,2.956,2.956,0,0,1,6.3.988a3.887,3.887,0,0,1,.848,1.44,6.576,6.576,0,0,1,.29,2.1,5.85,5.85,0,0,1-.272,1.893,3.924,3.924,0,0,1-.95,1.571,3.158,3.158,0,0,1-1.26.71,5.432,5.432,0,0,1-1.586.188H0V0ZM1.792,1.5V7.4H3.13A4.892,4.892,0,0,0,4.214,7.31a1.654,1.654,0,0,0,.723-.37,1.885,1.885,0,0,0,.469-.859,5.821,5.821,0,0,0,.182-1.629A5.306,5.306,0,0,0,5.406,2.87,2.034,2.034,0,0,0,4.9,2.008a1.7,1.7,0,0,0-.829-.418A8.051,8.051,0,0,0,2.6,1.5h-.8Z" transform="translate(118.615 139.508)" fill="#fff"/>
      <path id="Vector-27" data-name="Vector" d="M0,4.653A5.683,5.683,0,0,1,.406,2.371a4.186,4.186,0,0,1,.826-1.219,3.461,3.461,0,0,1,1.147-.8A4.868,4.868,0,0,1,4.292,0,4.159,4.159,0,0,1,7.431,1.219,4.677,4.677,0,0,1,8.608,4.61,4.663,4.663,0,0,1,7.44,7.98,4.13,4.13,0,0,1,4.316,9.2,4.17,4.17,0,0,1,1.168,7.985,4.6,4.6,0,0,1,0,4.653Zm1.847-.061a3.337,3.337,0,0,0,.7,2.29,2.266,2.266,0,0,0,1.768.779,2.247,2.247,0,0,0,1.758-.773,3.4,3.4,0,0,0,.687-2.321,3.35,3.35,0,0,0-.669-2.281,2.261,2.261,0,0,0-1.777-.753A2.278,2.278,0,0,0,2.524,2.3,3.367,3.367,0,0,0,1.847,4.592Z" transform="translate(130.657 139.356)" fill="#fff"/>
      <path id="Vector-28" data-name="Vector" d="M0,8.893V0H6.084V1.5H1.792V3.61H5.5v1.5h-3.7V8.894H0Z" transform="translate(140.676 139.508)" fill="#fff"/>
      <path id="Vector-29" data-name="Vector" d="M0,0H3.547A10.378,10.378,0,0,1,5.118.088a2.322,2.322,0,0,1,.927.367,2.288,2.288,0,0,1,.681.743A2.024,2.024,0,0,1,7,2.238a2.11,2.11,0,0,1-1.247,1.93A2.333,2.333,0,0,1,7,4.974a2.147,2.147,0,0,1,.436,1.34,2.655,2.655,0,0,1-.281,1.181,2.378,2.378,0,0,1-.769.915,2.524,2.524,0,0,1-1.2.421q-.449.049-2.161.061H0V0ZM1.792,1.48V3.537H2.966q1.047,0,1.3-.03a1.183,1.183,0,0,0,.723-.319.939.939,0,0,0,.263-.694.977.977,0,0,0-.227-.67,1.027,1.027,0,0,0-.675-.312Q4.086,1.481,2.82,1.48Zm0,3.537V7.4H3.45A8.045,8.045,0,0,0,4.68,7.341a1.1,1.1,0,0,0,.651-.355,1.092,1.092,0,0,0,.251-.755,1.164,1.164,0,0,0-.194-.68,1.093,1.093,0,0,0-.561-.406,6.033,6.033,0,0,0-1.589-.128H1.792Z" transform="translate(151.687 139.508)" fill="#fff"/>
      <path id="Vector-30" data-name="Vector" d="M0,8.893V0H6.58V1.5H1.792V3.476H6.247v1.5H1.792V7.4H6.75v1.5Z" transform="translate(160.635 139.508)" fill="#fff"/>
      <path id="Vector-31" data-name="Vector" d="M0,8.82V0H1.792V7.322H6.247v1.5Z" transform="translate(168.952 139.581)" fill="#fff"/>
      <path id="Vector-32" data-name="Vector" d="M0,8.82V0H1.792V7.322H6.247v1.5Z" transform="translate(176.526 139.581)" fill="#fff"/>
      <path id="Vector-33" data-name="Vector" d="M0,0H1.792V4.817A10.027,10.027,0,0,0,1.859,6.3a1.439,1.439,0,0,0,.548.876A1.908,1.908,0,0,0,3.59,7.51,1.8,1.8,0,0,0,4.741,7.2a1.233,1.233,0,0,0,.466-.768,10.048,10.048,0,0,0,.08-1.511V0H7.077V4.671a12.023,12.023,0,0,1-.145,2.262A2.512,2.512,0,0,1,6.4,8.05a2.713,2.713,0,0,1-1.045.725,4.532,4.532,0,0,1-1.707.27,4.91,4.91,0,0,1-1.929-.294A2.762,2.762,0,0,1,.678,7.987,2.456,2.456,0,0,1,.175,7,10.813,10.813,0,0,1,0,4.743V0Z" transform="translate(184.037 139.507)" fill="#fff"/>
      <path id="Vector-34" data-name="Vector" d="M2.633,8.893V1.5H0V0H7.052V1.5H4.425V8.893Z" transform="translate(192.369 139.508)" fill="#fff"/>
      <path id="Vector-35" data-name="Vector" d="M2.634,8.893V1.5H0V0H7.053V1.5H4.425V8.893Z" transform="translate(199.941 139.508)" fill="#fff"/>
      <path id="Vector-36" data-name="Vector" d="M0,8.893V0H1.792V8.893Z" transform="translate(208.096 139.508)" fill="#fff"/>
      <path id="Vector-37" data-name="Vector" d="M4.439,5.776v-1.5H8.3V7.82a4.849,4.849,0,0,1-1.632.961A5.939,5.939,0,0,1,4.5,9.2a4.846,4.846,0,0,1-2.428-.586A3.72,3.72,0,0,1,.521,6.937,5.424,5.424,0,0,1,0,4.568,5.115,5.115,0,0,1,.582,2.1,3.917,3.917,0,0,1,2.283.442,4.588,4.588,0,0,1,4.407,0,4.238,4.238,0,0,1,6.989.694a3.137,3.137,0,0,1,1.2,1.921l-1.78.333A1.886,1.886,0,0,0,5.7,1.914a2.128,2.128,0,0,0-1.293-.38,2.424,2.424,0,0,0-1.868.747,3.149,3.149,0,0,0-.693,2.213,3.49,3.49,0,0,0,.7,2.376,2.339,2.339,0,0,0,1.84.791A3.1,3.1,0,0,0,5.519,7.44,3.923,3.923,0,0,0,6.49,6.9V5.775H4.439Z" transform="translate(214.73 139.355)" fill="#fff"/>
      <path id="Vector-38" data-name="Vector" d="M0,8.893V0H3.771A6.454,6.454,0,0,1,5.839.24a2.04,2.04,0,0,1,1.032.852,2.561,2.561,0,0,1,.386,1.4,2.381,2.381,0,0,1-.586,1.654,2.81,2.81,0,0,1-1.756.821,4.186,4.186,0,0,1,.959.746A10.186,10.186,0,0,1,6.895,7.158L7.979,8.893H5.836l-1.3-1.935A12.829,12.829,0,0,0,3.6,5.65a1.379,1.379,0,0,0-.54-.37,2.945,2.945,0,0,0-.9-.1H1.793V8.893H0ZM1.792,3.761H3.117a6.89,6.89,0,0,0,1.611-.109.969.969,0,0,0,.5-.376,1.159,1.159,0,0,0,.182-.667,1.066,1.066,0,0,0-.239-.725A1.094,1.094,0,0,0,4.5,1.535Q4.28,1.5,3.19,1.5h-1.4V3.761Z" transform="translate(224.689 139.508)" fill="#fff"/>
      <path id="Vector-39" data-name="Vector" d="M0,4.653A5.673,5.673,0,0,1,.406,2.371a4.175,4.175,0,0,1,.826-1.219,3.476,3.476,0,0,1,1.147-.8A4.87,4.87,0,0,1,4.292,0,4.159,4.159,0,0,1,7.431,1.219,4.677,4.677,0,0,1,8.609,4.61,4.663,4.663,0,0,1,7.44,7.98,4.133,4.133,0,0,1,4.316,9.2,4.167,4.167,0,0,1,1.168,7.985,4.591,4.591,0,0,1,0,4.653Zm1.846-.061a3.34,3.34,0,0,0,.7,2.29,2.265,2.265,0,0,0,1.768.779,2.248,2.248,0,0,0,1.759-.773,3.4,3.4,0,0,0,.687-2.321,3.35,3.35,0,0,0-.669-2.281,2.262,2.262,0,0,0-1.777-.753A2.276,2.276,0,0,0,2.524,2.3,3.367,3.367,0,0,0,1.846,4.592Z" transform="translate(233.274 139.356)" fill="#fff"/>
      <path id="Vector-40" data-name="Vector" d="M0,0H1.793V4.817A9.941,9.941,0,0,0,1.859,6.3a1.441,1.441,0,0,0,.547.876A1.908,1.908,0,0,0,3.59,7.51,1.8,1.8,0,0,0,4.74,7.2a1.229,1.229,0,0,0,.467-.768A9.988,9.988,0,0,0,5.286,4.92V0H7.077V4.671a11.958,11.958,0,0,1-.145,2.262A2.5,2.5,0,0,1,6.4,8.05a2.7,2.7,0,0,1-1.044.725,4.537,4.537,0,0,1-1.707.27,4.91,4.91,0,0,1-1.929-.294A2.774,2.774,0,0,1,.678,7.987,2.446,2.446,0,0,1,.176,7,10.8,10.8,0,0,1,0,4.743V0Z" transform="translate(243.267 139.507)" fill="#fff"/>
      <path id="Vector-41" data-name="Vector" d="M0,8.893V0H2.876A10.385,10.385,0,0,1,5.007.134,2.329,2.329,0,0,1,6.285,1,2.766,2.766,0,0,1,6.8,2.736a2.91,2.91,0,0,1-.3,1.377,2.446,2.446,0,0,1-.754.877,2.579,2.579,0,0,1-.93.421,10.16,10.16,0,0,1-1.857.128H1.793V8.894H0ZM1.792,1.5V4.028h.982A4.626,4.626,0,0,0,4.19,3.889a1.181,1.181,0,0,0,.56-.437,1.2,1.2,0,0,0,.2-.692,1.148,1.148,0,0,0-.285-.8,1.236,1.236,0,0,0-.721-.394A8.692,8.692,0,0,0,2.658,1.5Z" transform="translate(252.233 139.508)" fill="#fff"/>
    </g>
  </g>
</svg>
