<svg xmlns="http://www.w3.org/2000/svg" width="32.001" height="32" viewBox="0 0 32.001 32">
  <path id="Download" d="M-5526.242,4477a2.753,2.753,0,0,1-1.95-.808,2.761,2.761,0,0,1-.809-1.951V4461a1.654,1.654,0,0,1,.486-1.17,1.654,1.654,0,0,1,1.169-.485,1.657,1.657,0,0,1,1.171.485,1.659,1.659,0,0,1,.484,1.17v12.689h25.379V4461a1.659,1.659,0,0,1,.484-1.17,1.657,1.657,0,0,1,1.171-.485,1.653,1.653,0,0,1,1.17.485A1.654,1.654,0,0,1-5497,4461v13.242a2.761,2.761,0,0,1-.809,1.951,2.753,2.753,0,0,1-1.95.808Zm12.609-6.747a1.663,1.663,0,0,1-.537-.359l-6.243-6.241a1.66,1.66,0,0,1-.484-1.171,1.659,1.659,0,0,1,.484-1.17,1.655,1.655,0,0,1,1.171-.484,1.651,1.651,0,0,1,1.169.484l3.417,3.417v-18.072a1.656,1.656,0,0,1,.485-1.171A1.653,1.653,0,0,1-5513,4445a1.652,1.652,0,0,1,1.171.484,1.653,1.653,0,0,1,.484,1.171v18.072l3.417-3.417a1.656,1.656,0,0,1,1.171-.484,1.652,1.652,0,0,1,1.17.484,1.656,1.656,0,0,1,.485,1.17,1.657,1.657,0,0,1-.485,1.171l-6.242,6.241a1.656,1.656,0,0,1-.537.359,1.654,1.654,0,0,1-.634.126A1.652,1.652,0,0,1-5513.633,4470.253Z" transform="translate(5529 -4445)" fill="#00964f"/>
</svg>
