<svg xmlns="http://www.w3.org/2000/svg" width="53" height="40" viewBox="0 0 53 40">
  <path id="Quote_Left" data-name="Quote Left" d="M4.5,5.73C8.213,1.927,13.837,0,21.21,0h2.649V7.047l-2.13.4c-3.629.685-6.154,2.032-7.505,4.01A6.968,6.968,0,0,0,13.064,15H21.21a2.732,2.732,0,0,1,1.873.732,2.431,2.431,0,0,1,.776,1.768V35a5.161,5.161,0,0,1-5.3,5H2.666a2.731,2.731,0,0,1-1.873-.732A2.431,2.431,0,0,1,.017,37.5V25l.008-7.3A16.352,16.352,0,0,1,4.5,5.73ZM47.7,40h-15.9a2.731,2.731,0,0,1-1.873-.732,2.431,2.431,0,0,1-.776-1.768V25l.008-7.3A16.352,16.352,0,0,1,33.637,5.73C37.354,1.927,42.978,0,50.351,0H53V7.047l-2.13.4c-3.629.685-6.154,2.032-7.505,4.01A6.968,6.968,0,0,0,42.2,15h8.146a2.732,2.732,0,0,1,1.873.732A2.431,2.431,0,0,1,53,17.5V35A5.161,5.161,0,0,1,47.7,40Z" fill="#eaeaea"/>
</svg>
